# xmcd
#
# Track frame offsets:
#	150
#	13357
#	27085
#	41112
#	51223
#	63602
#	77029
#	89016
#	101440
#	113696
#	125609
#	136787
#
# Disc length: 2043 seconds
#
# Revision: 1
# Processed by: cddbd v1.5.2PL0 Copyright (c) Steve Scherf et al.
# Submitted via: audiograbber 1.83.01
#
DISCID=a207f90c
DTITLE=Tom Astor - Westwind
DYEAR=1900
DGENRE=
TTITLE0=Ich bin ein undressierter Mann
TTITLE1=Sie ist wie ein neues Leben
TTITLE2=Die fünfziger Jahre sterben nie
TTITLE3=Ihr Leben, das ist ihr Laster
TTITLE4=Du bist mein bester Freund
TTITLE5=Alter Freund, überhol dich nicht selber
TTITLE6=14 Tage auf dem Brenner
TTITLE7=Hier riecht's nach Freiheit
TTITLE8=Dieser Hintern hat das Zeug zu einem Weltstar
TTITLE9=Dieser Song ist mein Talisman
TTITLE10=Ist lange her
TTITLE11=5 vor 12
EXTD=
EXTT0=
EXTT1=
EXTT2=
EXTT3=
EXTT4=
EXTT5=
EXTT6=
EXTT7=
EXTT8=
EXTT9=
EXTT10=
EXTT11=
PLAYORDER=
